<svg id="eDAwyIidKfz1" xmlns="http://www.w3.org/2000/svg" xmlns:xlink="http://www.w3.org/1999/xlink" viewBox="0 0 300 300" shape-rendering="geometricPrecision" text-rendering="geometricPrecision" project-id="ee90a3f2cc464783b7557652985dc70d" export-id="4a6aaa5a2c2b427db4e785e8a0f8702b" cached="false"><path d="M259.12054,108.77759c4.97961,13.25692,7.89751,27.28144,7.89751,41.22242c0,68.33021-54.9024,123.7228-122.62795,123.7228s-122.62795-55.39258-122.62795-123.7228L21.76216,150c0-68.33021,54.9024-123.7228,122.62795-123.7228c32.68271,0,58.3107,8.89876,80.29197,29.92718c2.69955,2.58253,5.33612,5.34016,7.88871,8.25202v4.88667c-2.43322-2.65401-9.4335-6.84796-12.26827-9.13766-18.85518-15.22967-49.78736-20.05851-75.91241-20.05851C83.7203,40.1469,34.53771,89.32981,34.53771,150s49.18259,109.8531,109.8524,109.8531s109.8524-49.18291,109.8524-109.8531c0-10.54019-.99489-28.13004-2.91527-40.42582-3.71289,3.00063-7.35009,5.94009-10.91161,8.81839c3.27512,9.94265,5.04714,20.56811,5.04714,31.60744c0,55.75142-45.19548,100.94687-100.94695,100.94687s-100.94695-45.19545-100.94695-100.94687s45.19548-100.94687,100.94695-100.94687c40.44153,0,75.32861,23.78139,91.43959,58.12254l34.56547-27.69256c.01882.023,1.64628-.57208,2.55322-.57579c2.84046-.01162,5.15235,2.23983,5.16376,5.02876.00481,1.17672-.40068,2.26111-1.08445,3.12248.02549.0282-7.35819,6.47615-22.15103,19.34384l4.11816,2.37518ZM113.978073,218.426391L69.46861,172.95052c-.722756-.917422-.922756-2.097422.537244-3.48122.9-.956202,1.5-1.116202,3.467986,0l41.24395,34.83741l111.41438-89.26103c-13.57-31.64368-45.00464-53.80931-81.61635-53.80931-49.02283,0-88.76369,39.74082-88.76369,88.76362s39.74085,88.76362,88.76369,88.76362s88.76369-39.74082,88.76369-88.76362c0-8.0758-1.07848-15.89971-3.09927-23.33556-63.64083,51.432311-103.152738,82.852496-114.177045,91.761961" transform="matrix(1.169702 0 0 1.15399-25.455301-23.098501)" stroke-width="0"/></svg>
